<mxfile host="app.diagrams.net" modified="2021-08-26T15:31:22.642Z" agent="5.0 (Windows NT 10.0; Win64; x64) AppleWebKit/537.36 (KHTML, like Gecko) Chrome/92.0.4515.131 Safari/537.36 OPR/78.0.4093.153" etag="tocbklFS02CUPI-h36UB" version="14.9.9" type="github">
  <diagram id="H5QIMgeE7Zo3_wGfTSzH" name="Page-1">
    <mxGraphModel dx="1888" dy="548" grid="1" gridSize="10" guides="1" tooltips="1" connect="1" arrows="1" fold="1" page="1" pageScale="1" pageWidth="850" pageHeight="1100" math="0" shadow="0">
      <root>
        <mxCell id="0" />
        <mxCell id="1" parent="0" />
        <mxCell id="m1yEv1fIaa3WlZkVyxbv-2" style="edgeStyle=orthogonalEdgeStyle;rounded=0;orthogonalLoop=1;jettySize=auto;html=1;endArrow=none;endFill=0;dashed=1;" parent="1" source="m1yEv1fIaa3WlZkVyxbv-10" edge="1">
          <mxGeometry relative="1" as="geometry">
            <mxPoint x="-690" y="450" as="targetPoint" />
            <mxPoint x="-690.5" y="-130.5" as="sourcePoint" />
            <Array as="points" />
          </mxGeometry>
        </mxCell>
        <mxCell id="m1yEv1fIaa3WlZkVyxbv-3" value="" style="shape=umlActor;verticalLabelPosition=bottom;verticalAlign=top;html=1;outlineConnect=0;" parent="1" vertex="1">
          <mxGeometry x="-700" y="60" width="20" height="40" as="geometry" />
        </mxCell>
        <mxCell id="m1yEv1fIaa3WlZkVyxbv-4" value=": Reminder" style="rounded=0;whiteSpace=wrap;html=1;" parent="1" vertex="1">
          <mxGeometry x="-590" y="60" width="100" height="40" as="geometry" />
        </mxCell>
        <mxCell id="m1yEv1fIaa3WlZkVyxbv-5" style="edgeStyle=orthogonalEdgeStyle;rounded=0;orthogonalLoop=1;jettySize=auto;html=1;endArrow=none;endFill=0;dashed=1;" parent="1" source="m1yEv1fIaa3WlZkVyxbv-6" edge="1">
          <mxGeometry relative="1" as="geometry">
            <mxPoint x="-390" y="450" as="targetPoint" />
          </mxGeometry>
        </mxCell>
        <mxCell id="m1yEv1fIaa3WlZkVyxbv-6" value=": Database" style="rounded=0;whiteSpace=wrap;html=1;" parent="1" vertex="1">
          <mxGeometry x="-440" y="60" width="100" height="40" as="geometry" />
        </mxCell>
        <mxCell id="m1yEv1fIaa3WlZkVyxbv-7" value="" style="endArrow=classic;html=1;" parent="1" edge="1">
          <mxGeometry width="50" height="50" relative="1" as="geometry">
            <mxPoint x="-690" y="150" as="sourcePoint" />
            <mxPoint x="-547" y="150" as="targetPoint" />
          </mxGeometry>
        </mxCell>
        <mxCell id="m1yEv1fIaa3WlZkVyxbv-8" value="clicks date button" style="text;html=1;align=center;verticalAlign=middle;resizable=0;points=[];autosize=1;strokeColor=none;" parent="1" vertex="1">
          <mxGeometry x="-670" y="130" width="110" height="20" as="geometry" />
        </mxCell>
        <mxCell id="m1yEv1fIaa3WlZkVyxbv-9" value="" style="html=1;points=[];perimeter=orthogonalPerimeter;fillColor=#ffffff;" parent="1" vertex="1">
          <mxGeometry x="-395" y="150" width="10" height="260" as="geometry" />
        </mxCell>
        <mxCell id="m1yEv1fIaa3WlZkVyxbv-10" value="User" style="text;html=1;align=center;verticalAlign=middle;resizable=0;points=[];autosize=1;strokeColor=none;" parent="1" vertex="1">
          <mxGeometry x="-710" y="100" width="40" height="20" as="geometry" />
        </mxCell>
        <mxCell id="m1yEv1fIaa3WlZkVyxbv-11" value="" style="endArrow=classic;html=1;" parent="1" edge="1">
          <mxGeometry width="50" height="50" relative="1" as="geometry">
            <mxPoint x="-685" y="240" as="sourcePoint" />
            <mxPoint x="-544" y="240" as="targetPoint" />
          </mxGeometry>
        </mxCell>
        <mxCell id="m1yEv1fIaa3WlZkVyxbv-12" value="" style="endArrow=none;html=1;entryX=-0.02;entryY=0.222;entryDx=0;entryDy=0;entryPerimeter=0;startArrow=classic;startFill=1;endFill=0;dashed=1;" parent="1" edge="1">
          <mxGeometry width="50" height="50" relative="1" as="geometry">
            <mxPoint x="-685" y="190.01999999999998" as="sourcePoint" />
            <mxPoint x="-545.2" y="190" as="targetPoint" />
          </mxGeometry>
        </mxCell>
        <mxCell id="m1yEv1fIaa3WlZkVyxbv-14" value="" style="edgeStyle=orthogonalEdgeStyle;rounded=0;orthogonalLoop=1;jettySize=auto;html=1;endArrow=none;endFill=0;dashed=1;" parent="1" source="m1yEv1fIaa3WlZkVyxbv-4" edge="1">
          <mxGeometry relative="1" as="geometry">
            <mxPoint x="-540" y="450" as="targetPoint" />
            <mxPoint x="-540" y="100" as="sourcePoint" />
            <Array as="points">
              <mxPoint x="-540" y="190" />
              <mxPoint x="-540" y="190" />
            </Array>
          </mxGeometry>
        </mxCell>
        <mxCell id="m1yEv1fIaa3WlZkVyxbv-15" value="display form" style="text;html=1;align=center;verticalAlign=middle;resizable=0;points=[];autosize=1;strokeColor=none;" parent="1" vertex="1">
          <mxGeometry x="-655" y="170" width="80" height="20" as="geometry" />
        </mxCell>
        <mxCell id="m1yEv1fIaa3WlZkVyxbv-16" value="enter event name, &lt;br&gt;time" style="text;html=1;align=center;verticalAlign=middle;resizable=0;points=[];autosize=1;strokeColor=none;" parent="1" vertex="1">
          <mxGeometry x="-675" y="205" width="110" height="30" as="geometry" />
        </mxCell>
        <mxCell id="m1yEv1fIaa3WlZkVyxbv-17" value="" style="endArrow=classic;html=1;" parent="1" edge="1">
          <mxGeometry width="50" height="50" relative="1" as="geometry">
            <mxPoint x="-685" y="280" as="sourcePoint" />
            <mxPoint x="-544" y="280" as="targetPoint" />
          </mxGeometry>
        </mxCell>
        <mxCell id="m1yEv1fIaa3WlZkVyxbv-18" value="" style="endArrow=classic;html=1;" parent="1" edge="1">
          <mxGeometry width="50" height="50" relative="1" as="geometry">
            <mxPoint x="-536" y="300" as="sourcePoint" />
            <mxPoint x="-395" y="300" as="targetPoint" />
          </mxGeometry>
        </mxCell>
        <mxCell id="m1yEv1fIaa3WlZkVyxbv-19" value="" style="endArrow=classic;html=1;" parent="1" edge="1">
          <mxGeometry width="50" height="50" relative="1" as="geometry">
            <mxPoint x="-535" y="249.5" as="sourcePoint" />
            <mxPoint x="-394" y="249.5" as="targetPoint" />
          </mxGeometry>
        </mxCell>
        <mxCell id="m1yEv1fIaa3WlZkVyxbv-23" value="select sound&amp;nbsp;" style="text;html=1;align=center;verticalAlign=middle;resizable=0;points=[];autosize=1;strokeColor=none;" parent="1" vertex="1">
          <mxGeometry x="-665" y="260" width="90" height="20" as="geometry" />
        </mxCell>
        <mxCell id="m1yEv1fIaa3WlZkVyxbv-24" value="addToTimetable&lt;br&gt;(name, time)&lt;span style=&quot;color: rgba(0 , 0 , 0 , 0) ; font-family: monospace ; font-size: 0px&quot;&gt;%3CmxGraphModel%3E%3Croot%3E%3CmxCell%20id%3D%220%22%2F%3E%3CmxCell%20id%3D%221%22%20parent%3D%220%22%2F%3E%3CmxCell%20id%3D%222%22%20value%3D%22%22%20style%3D%22endArrow%3Dnone%3Bhtml%3D1%3BentryX%3D-0.02%3BentryY%3D0.222%3BentryDx%3D0%3BentryDy%3D0%3BentryPerimeter%3D0%3BstartArrow%3Dclassic%3BstartFill%3D1%3BendFill%3D0%3Bdashed%3D1%3B%22%20edge%3D%221%22%20parent%3D%221%22%3E%3CmxGeometry%20width%3D%2250%22%20height%3D%2250%22%20relative%3D%221%22%20as%3D%22geometry%22%3E%3CmxPoint%20x%3D%22-340%22%20y%3D%22330.02%22%20as%3D%22sourcePoint%22%2F%3E%3CmxPoint%20x%3D%22-200.20000000000005%22%20y%3D%22330%22%20as%3D%22targetPoint%22%2F%3E%3C%2FmxGeometry%3E%3C%2FmxCell%3E%3C%2Froot%3E%3C%2FmxGraphModel%3E&lt;/span&gt;" style="text;html=1;align=center;verticalAlign=middle;resizable=0;points=[];autosize=1;strokeColor=none;" parent="1" vertex="1">
          <mxGeometry x="-510" y="210" width="100" height="40" as="geometry" />
        </mxCell>
        <mxCell id="m1yEv1fIaa3WlZkVyxbv-25" value="addToTimetable&lt;br&gt;(sound)&lt;span style=&quot;color: rgba(0 , 0 , 0 , 0) ; font-family: monospace ; font-size: 0px&quot;&gt;%3CmxGraphModel%3E%3Croot%3E%3CmxCell%20id%3D%220%22%2F%3E%3CmxCell%20id%3D%221%22%20parent%3D%220%22%2F%3E%3CmxCell%20id%3D%222%22%20value%3D%22%22%20style%3D%22endArrow%3Dnone%3Bhtml%3D1%3BentryX%3D-0.02%3BentryY%3D0.222%3BentryDx%3D0%3BentryDy%3D0%3BentryPerimeter%3D0%3BstartArrow%3Dclassic%3BstartFill%3D1%3BendFill%3D0%3Bdashed%3D1%3B%22%20edge%3D%221%22%20parent%3D%221%22%3E%3CmxGeometry%20width%3D%2250%22%20height%3D%2250%22%20relative%3D%221%22%20as%3D%22geometry%22%3E%3CmxPoint%20x%3D%22-340%22%20y%3D%22330.02%22%20as%3D%22sourcePoint%22%2F%3E%3CmxPoint%20x%3D%22-200.20000000000005%22%20y%3D%22330%22%20as%3D%22targetPoint%22%2F%3E%3C%2FmxGeometry%3E%3C%2FmxCell%3E%3C%2Froot%3E%3C%2FmxGraphModel%3E&lt;/span&gt;" style="text;html=1;align=center;verticalAlign=middle;resizable=0;points=[];autosize=1;strokeColor=none;" parent="1" vertex="1">
          <mxGeometry x="-510" y="260" width="100" height="40" as="geometry" />
        </mxCell>
        <mxCell id="m1yEv1fIaa3WlZkVyxbv-27" value="" style="endArrow=classic;html=1;" parent="1" edge="1">
          <mxGeometry width="50" height="50" relative="1" as="geometry">
            <mxPoint x="-686" y="320" as="sourcePoint" />
            <mxPoint x="-545" y="320" as="targetPoint" />
          </mxGeometry>
        </mxCell>
        <mxCell id="m1yEv1fIaa3WlZkVyxbv-31" value="clicks add button" style="text;html=1;align=center;verticalAlign=middle;resizable=0;points=[];autosize=1;strokeColor=none;" parent="1" vertex="1">
          <mxGeometry x="-675" y="292.5" width="110" height="20" as="geometry" />
        </mxCell>
        <mxCell id="m1yEv1fIaa3WlZkVyxbv-32" value="addToReminder()" style="text;html=1;align=center;verticalAlign=middle;resizable=0;points=[];autosize=1;strokeColor=none;" parent="1" vertex="1">
          <mxGeometry x="-525" y="312.5" width="110" height="20" as="geometry" />
        </mxCell>
        <mxCell id="m1yEv1fIaa3WlZkVyxbv-34" value="" style="html=1;points=[];perimeter=orthogonalPerimeter;fillColor=#FFFFFF;" parent="1" vertex="1">
          <mxGeometry x="-545" y="355" width="10" height="30" as="geometry" />
        </mxCell>
        <mxCell id="m1yEv1fIaa3WlZkVyxbv-35" value="" style="html=1;points=[];perimeter=orthogonalPerimeter;fillColor=#FFFFFF;" parent="1" vertex="1">
          <mxGeometry x="-695" y="350" width="10" height="30" as="geometry" />
        </mxCell>
        <mxCell id="m1yEv1fIaa3WlZkVyxbv-36" value="" style="html=1;points=[];perimeter=orthogonalPerimeter;fillColor=#FFFFFF;" parent="1" vertex="1">
          <mxGeometry x="-695" y="270" width="10" height="30" as="geometry" />
        </mxCell>
        <mxCell id="m1yEv1fIaa3WlZkVyxbv-40" value="" style="html=1;points=[];perimeter=orthogonalPerimeter;fillColor=#FFFFFF;" parent="1" vertex="1">
          <mxGeometry x="-545" y="275" width="10" height="55" as="geometry" />
        </mxCell>
        <mxCell id="m1yEv1fIaa3WlZkVyxbv-44" value="" style="endArrow=classic;html=1;" parent="1" edge="1">
          <mxGeometry width="50" height="50" relative="1" as="geometry">
            <mxPoint x="-536" y="340" as="sourcePoint" />
            <mxPoint x="-395" y="340" as="targetPoint" />
          </mxGeometry>
        </mxCell>
        <mxCell id="m1yEv1fIaa3WlZkVyxbv-52" value="" style="html=1;points=[];perimeter=orthogonalPerimeter;fillColor=#FFFFFF;" parent="1" vertex="1">
          <mxGeometry x="-545" y="130" width="10" height="280" as="geometry" />
        </mxCell>
        <mxCell id="m1yEv1fIaa3WlZkVyxbv-53" value="" style="html=1;points=[];perimeter=orthogonalPerimeter;fillColor=#ffffff;" parent="1" vertex="1">
          <mxGeometry x="-695" y="130" width="10" height="280" as="geometry" />
        </mxCell>
        <mxCell id="m1yEv1fIaa3WlZkVyxbv-56" value="" style="endArrow=none;html=1;entryX=-0.02;entryY=0.222;entryDx=0;entryDy=0;entryPerimeter=0;startArrow=classic;startFill=1;endFill=0;dashed=1;" parent="1" edge="1">
          <mxGeometry width="50" height="50" relative="1" as="geometry">
            <mxPoint x="-685" y="385.02" as="sourcePoint" />
            <mxPoint x="-545.2" y="385" as="targetPoint" />
          </mxGeometry>
        </mxCell>
        <mxCell id="m1yEv1fIaa3WlZkVyxbv-57" value="" style="endArrow=none;html=1;entryX=-0.02;entryY=0.222;entryDx=0;entryDy=0;entryPerimeter=0;startArrow=classic;startFill=1;endFill=0;dashed=1;" parent="1" edge="1">
          <mxGeometry width="50" height="50" relative="1" as="geometry">
            <mxPoint x="-535" y="369.52" as="sourcePoint" />
            <mxPoint x="-395.2" y="369.5" as="targetPoint" />
          </mxGeometry>
        </mxCell>
        <mxCell id="m1yEv1fIaa3WlZkVyxbv-59" value="get data" style="text;html=1;align=center;verticalAlign=middle;resizable=0;points=[];autosize=1;strokeColor=none;" parent="1" vertex="1">
          <mxGeometry x="-490" y="350" width="60" height="20" as="geometry" />
        </mxCell>
        <mxCell id="m1yEv1fIaa3WlZkVyxbv-60" value="display reminder" style="text;html=1;align=center;verticalAlign=middle;resizable=0;points=[];autosize=1;strokeColor=none;" parent="1" vertex="1">
          <mxGeometry x="-660" y="360" width="100" height="20" as="geometry" />
        </mxCell>
      </root>
    </mxGraphModel>
  </diagram>
</mxfile>
